<?xml version="1.0" encoding="utf-8"?>
<!-- Generator: Adobe Illustrator 23.0.0, SVG Export Plug-In . SVG Version: 6.00 Build 0)  -->
<svg version="1.1" id="图层_1" xmlns="http://www.w3.org/2000/svg" xmlns:xlink="http://www.w3.org/1999/xlink" x="0px" y="0px"
	 viewBox="0 0 736 736" style="enable-background:new 0 0 736 736;" xml:space="preserve">
<style type="text/css">
	.st0{fill:#B4EBFF;}
	.st1{fill:#616D56;}
	.st2{fill:#555100;}
	.st3{fill:#C9E1FF;}
	.st4{fill:#FFFFFF;}
	.st5{fill:#E2FFD4;}
	.st6{fill:none;}
	.st7{fill:#438FB5;}
	.st8{fill:#CCCCCC;}
	.st9{fill:#7F5D00;}
	.st10{fill:#005500;}
	.st11{fill:#C9FFEA;}
	.st12{fill:#FFD1BF;}
	.st13{fill:#9AFF94;}
	.st14{fill:#FFB4BF;}
	.st15{fill:#D5FFAA;}
	.st16{fill:#FFBD9F;}
	.st17{fill:#C9FFCB;}
	.st18{fill:#ADC2DA;}
	.st19{fill:#AAAAAA;}
	.st20{fill:url(#SVGID_1_);stroke:#666666;stroke-miterlimit:10;}
	.st21{fill:#333333;}
	.st22{fill:#FFA29F;}
	.st23{fill:#FFEA9F;}
	.st24{fill:#0056B4;}
	.st25{fill:#FFFED4;}
	.st26{fill:#317540;}
	.st27{fill:#BBBBBB;}
	.st28{fill:#FFC59F;}
	.st29{fill:#CAFF9F;}
</style>
<title>资源 3</title>
<g>
	<circle class="st0" cx="368" cy="368" r="276"/>
	<path class="st1" d="M643.9,369.5c0,9.1-0.4,18.1-1.3,27c-1.5,0.5-3,0.9-4.6,1.1c-6.2,0.7-12.6-0.6-18-3.7
		c-14.5-8-22.2-26.8-17.3-42.6c2.6-8.6,8.5-16.5,8.5-25.5c-0.1-10.9-8.6-19.5-15-28.3c-9.5-12.9-15.3-28.1-16.8-44.1
		c-0.3-2.6-0.3-5.4,0.9-7.8c3-5.8,11.3-5.2,17.7-3.8l17.6,3.9c2.8,5.8,5.5,11.7,7.9,17.7c0.2,0.4,0.3,0.8,0.5,1.3
		C637.2,298.1,644,333.7,643.9,369.5z"/>
	<path class="st1" d="M208.7,297.7c-11.6,14.8-31.9,18.7-50.5,21.6c-10.7,1.7-21.5,3.4-32.3,2.7c-10.2-0.6-20.4-3.4-28.5-9.5
		c6.3-29.5,17.1-57.9,32.2-84c0.9,1.9,2,3.7,3.2,5.5c4.5,6.6,10.9,11.8,17.2,16.8L208.7,297.7z"/>
	<path class="st2" d="M403.1,171.3c-6,7.9-13.3,16.6-23.3,17.2c-1.6,0.2-3.3-0.2-4.7-1.1c-1.6-1.3-2.1-3.4-2.6-5.4
		c-4.9-19.5-18.1-36.1-33.9-48.7c-15.3-12.3-33.1-21.1-50.7-29.8c47.5-9.6,96.3-10.6,144.2-2.8C435.4,126.6,418.8,150.5,403.1,171.3
		z"/>
	<path class="st3" d="M565.3,397.2c-3.3,18-7.7,36.2-17.1,52c-11.5,19.2-29.6,33.5-47.8,46.7c-14.5,10.5-29.6,20.8-46.7,26.2
		c-13.8,4.3-28.4,5.3-42.8,5.3c-39.3,0-78.2-7.2-114.9-21.1c-17.9-6.8-35.3-15.3-49.6-28s-25.1-29.9-27.1-48.8
		c-1.4-12.8,1-26.9-6.2-37.6c-8.4-12.5-26-14.8-37.3-24.9c-2.5-2.3-4.8-5.2-4.9-8.5c-0.1-6,6.9-9.9,12.9-9.6s11.6,3.2,17.5,4.4
		c12.1,2.4,25.1-3,33.1-12.5s10.9-22.4,9.6-34.6c-1.8-16.7-10.6-35.2-0.9-49c8.6-12.1,26.2-12.3,41.1-11.3l0.1,0.5
		c38.3-25,84.2-43.1,129.5-35.9c15.4,2.4,30.1,7.7,44.5,13.4c22.2,8.9,44,19.3,62.9,33.9c18.9,14.6,34.9,33.7,42.6,56.1
		C573.1,340.5,570.4,369.6,565.3,397.2z"/>
	<path class="st4" d="M557.8,397.1c-3.2,17.4-7.4,34.9-16.4,50.1c-11,18.6-28.4,32.3-45.8,45.1c-13.9,10.2-28.4,20.1-44.8,25.3
		c-13.2,4.2-27.2,5.1-41.1,5.1c-37.7,0-75-6.9-110.2-20.4c-17.1-6.5-33.9-14.8-47.6-27s-24.1-28.8-26-47c-1.3-12.3,0.9-26-6-36.3
		c-8-12-25-14.3-35.7-24c-2.4-2.2-4.6-5-4.6-8.2c-0.1-5.8,6.6-9.5,12.4-9.2s11.1,3.1,16.8,4.3c11.6,2.4,24.1-2.9,31.7-12.1
		s10.5-21.6,9.2-33.4c-1.7-16.1-10.2-34-0.9-47.2c8.2-11.7,25.1-11.9,39.4-10.9l0.1,0.5c36.8-24.2,80.7-41.5,124.2-34.6
		c14.7,2.3,28.9,7.4,42.7,13c21.3,8.6,42.2,18.6,60.3,32.7c18.1,14.1,33.4,32.5,40.9,54.2C565.3,342.4,562.7,370.5,557.8,397.1z"/>
	<path class="st5" d="M403.7,165.6c-5.9,7.8-13,16.3-22.8,16.9c-1.6,0.2-3.2-0.1-4.6-1c-1.6-1.2-2.1-3.4-2.6-5.3
		c-4.8-19.1-17.8-35.4-33.2-47.7c-15-12-32.4-20.7-49.6-29.2c46.5-9.5,94.4-10.4,141.3-2.7C435.4,121.8,419.1,145.2,403.7,165.6z"/>
	<path class="st6" d="M302.8,99.1l-0.9-0.4"/>
	<path class="st5" d="M203.4,295.5c-11,14.1-30.5,17.9-48.2,20.7c-10.2,1.6-20.5,3.2-30.9,2.6c-9.7-0.6-19.5-3.2-27.2-9.1
		c6-28.2,16.4-55.3,30.8-80.2c0.9,1.8,1.9,3.6,3.1,5.3c4.3,6.3,10.4,11.2,16.4,16L203.4,295.5z"/>
	<path class="st5" d="M645.8,367.2c0,8.9-0.4,17.7-1.3,26.5c-1.5,0.5-3,0.9-4.5,1.1c-6.1,0.7-12.3-0.5-17.6-3.6
		c-14.2-7.8-21.7-26.2-16.9-41.7c2.6-8.4,8.3-16.1,8.3-24.9c-0.1-10.7-8.4-19.1-14.7-27.7c-9.3-12.6-14.9-27.5-16.5-43.1
		c-0.3-2.6-0.3-5.3,0.9-7.6c3-5.6,11.1-5.1,17.3-3.7l17.2,3.8c2.8,5.7,5.3,11.4,7.7,17.3c0.2,0.4,0.3,0.8,0.5,1.2
		C639.2,297.3,645.8,332.1,645.8,367.2z"/>
	<path class="st7" d="M556.8,570.1c-4.2,2.3-5.2,7.5-8.5,10.8c-4.2,4.2-11.3,4.3-17,2.8c-5.7-1.4-11.1-4.1-17.1-4.3
		c-3.6,0-7.3,0.4-10.8,1.3c-20.4,4.5-41.6,10.5-56.9,24.4c-1.3,1.2-2.5,2.5-3.6,3.9c-0.5,0.7-0.9,1.5-1.3,2.3c0,2.1,0.1,4.2,0.2,6.2
		c0,0.4,0,0.8,0.1,1.1c0.1,0.9,0.1,1.9,0.3,2.8c0.1,0.5,0.2,1,0.3,1.4l0,0c0.1,0.3,0.2,0.6,0.2,1c0.7,3,2.1,5.9,3.9,8.4
		c3.2,3.5,7.5,5.7,12.2,6.2c10.5,1.2,20.7-5.5,27.9-13.2c7.3-7.6,13.2-16.5,22-22.5c3.6-2.4,7.5-4.4,11.4-6.2l9.3-4.4
		c3.2-1.7,6.6-3,10.2-3.7c3.6-0.6,7.5-0.1,10,2.2c2.1,1.9,3.3,5,6.2,5.7C552,588,552.3,578.2,556.8,570.1z"/>
	<path class="st8" d="M515.9,578.1c-17.1,0.4-34.4,5.2-50.1,12.5c-6.4,2.9-12.7,6.4-17.7,11.2c-4.1,3.9-7.2,8.9-8.2,14.1
		c1.4-0.3,2.7-0.7,4-1.2c18.5-6.5,36.3-14.7,53.3-24.4C503.7,586.6,509.9,582.5,515.9,578.1z"/>
	
		<rect x="140.5" y="539.1" transform="matrix(0.7485 -0.6631 0.6631 0.7485 -320.8751 235.2825)" class="st9" width="18.5" height="3.1"/>
	
		<ellipse transform="matrix(0.9884 -0.1516 0.1516 0.9884 -37.4772 98.7952)" class="st10" cx="629.1" cy="295.1" rx="2.3" ry="10.3"/>
	<polygon class="st11" points="142.5,497.6 109.5,485.9 129.8,508.9 	"/>
	<polygon class="st8" points="127.2,514.9 117,567.7 149,539.8 	"/>
	<polygon class="st11" points="190.7,551.9 142.5,497.6 129.8,508.9 178,563.2 178.8,562.5 	"/>
	<polyline class="st11" points="193.3,580.5 190.7,551.9 178,563.2 	"/>
	<polyline class="st8" points="127.7,562.3 165.8,558.8 150.8,541.9 	"/>
	<ellipse transform="matrix(0.99 -0.1409 0.1409 0.99 -39.4192 92.4617)" class="st10" cx="633.2" cy="324.6" rx="3.2" ry="9.9"/>
	<ellipse transform="matrix(0.9948 -0.1018 0.1018 0.9948 -34.1767 66.1433)" class="st10" cx="631.3" cy="368.1" rx="2" ry="9.8"/>
	
		<rect x="632.8" y="320" transform="matrix(0.9841 -0.1774 0.1774 0.9841 -47.0244 119.0513)" class="st12" width="18.8" height="4.9"/>
	<polygon class="st13" points="684.1,314.8 644.6,310.1 648.7,332.9 	"/>
	
		<rect x="631.3" y="362.1" transform="matrix(0.9835 -0.1807 0.1807 0.9835 -55.0435 124.3316)" class="st14" width="47.5" height="4.5"/>
	<polygon class="st15" points="735.8,350.1 653.6,353.1 657.7,375.9 	"/>
	<ellipse transform="matrix(0.9873 -0.159 0.159 0.9873 -34.0754 99.5138)" class="st10" cx="604.8" cy="262.7" rx="1.8" ry="9.9"/>
	
		<rect x="604.8" y="255.9" transform="matrix(0.9835 -0.1807 0.1807 0.9835 -36.3015 117.7977)" class="st16" width="47.5" height="4.5"/>
	<polygon class="st17" points="700.9,245.7 627.6,247.1 631.7,269.9 	"/>
	<polygon class="st18" points="365.8,72.3 390.6,69.5 388.3,53.1 363.4,56 	"/>
	<polygon class="st19" points="348,73.4 367.3,71.3 365.1,55.9 345.8,58 	"/>
	
		<linearGradient id="SVGID_1_" gradientUnits="userSpaceOnUse" x1="-549.89" y1="677.06" x2="-535.17" y2="677.06" gradientTransform="matrix(-1 0 0 -1 -155.39 738)">
		<stop  offset="0" style="stop-color:#29ABE2"/>
		<stop  offset="7.000000e-02" style="stop-color:#2BA5D9"/>
		<stop  offset="0.19" style="stop-color:#3195BF"/>
		<stop  offset="0.34" style="stop-color:#3B7B96"/>
		<stop  offset="0.52" style="stop-color:#49575D"/>
		<stop  offset="0.57" style="stop-color:#4D4D4D"/>
		<stop  offset="0.87" style="stop-color:#333333"/>
		<stop  offset="0.99" style="stop-color:#1B1464"/>
	</linearGradient>
	<ellipse class="st20" cx="387.1" cy="60.9" rx="7.4" ry="8.9"/>
	<ellipse class="st18" cx="364.9" cy="64.1" rx="6.9" ry="8.5"/>
	<ellipse class="st19" cx="345.7" cy="66" rx="7.7" ry="8"/>
	<rect x="370.7" y="69.9" class="st21" width="3" height="2.7"/>
	<rect x="368.7" y="71.7" class="st21" width="3" height="2.7"/>
	<rect x="366.6" y="70.8" class="st21" width="3" height="1.8"/>
	<rect x="363.6" y="71.7" class="st21" width="12.1" height="0.9"/>
	<rect x="367.7" y="73.5" class="st21" width="1" height="1.8"/>
	<rect x="370.7" y="74.4" class="st21" width="1" height="0.9"/>
	
		<ellipse transform="matrix(6.784115e-02 -0.9977 0.9977 6.784115e-02 231.063 469.9208)" class="st10" cx="367" cy="111.3" rx="4" ry="26.8"/>
	<path class="st22" d="M88.5,288.3l12.8-42.6c0.3-0.9,1.2-1.4,2-1.1l23.6,7.1c0.9,0.3,1.4,1.2,1.1,2l-12.8,42.6
		c-0.3,0.9-1.2,1.4-2,1.1l-23.6-7.1C88.7,290.1,88.2,289.2,88.5,288.3z"/>
	<path class="st23" d="M103.9,242L88,295c-0.1,0.8-0.9,1.3-1.7,1.2c-0.4-0.1-0.7-0.3-0.9-0.6L79,286c-0.3-0.4-0.3-0.9-0.2-1.4
		l10.9-36.4c0.1-0.4,0.4-0.8,0.8-1l11.3-6.9c0.7-0.4,1.6-0.2,2,0.5C104,241.1,104,241.6,103.9,242z"/>
	<path class="st24" d="M92.7,243.3l0.1-0.3c0.2-0.8,1.1-1.3,1.9-1l1.3,0.4c0.8,0.2,1.3,1.1,1,1.9l-0.1,0.3c-0.2,0.8-1.1,1.3-1.9,1
		l-1.3-0.4C92.9,244.9,92.5,244.1,92.7,243.3z"/>
	<path class="st8" d="M89.1,241.5c-0.7-0.4-1.5-0.6-2.3-0.6c-0.8,0-1.6-0.2-2.3-0.6c-0.7-0.4-1.2-1.2-1.3-2c0-0.1,0-0.3,0.1-0.4
		c0.2-0.2,0.5-0.1,0.7,0c1.5,0.8,3.1,1.6,4.6,2.4c0.4,0.2,0.8,0.6,0.6,1.1s-0.7,0.4-1,0.3c-0.9-0.1-1.8-0.1-2.8,0.1
		c-0.5,0.2-1.1,0.3-1.6,0.4c-0.6,0.1-1.1-0.2-1.4-0.7c-0.4-0.8-0.1-1.8,0.3-2.6c0.1-0.2,0.2-0.3,0.3-0.4c0.2-0.1,0.3-0.1,0.5,0
		c0.7,0.2,1.2,0.6,1.6,1.1"/>
	<path class="st8" d="M89.8,240.2c-0.9-0.4-1.8-0.7-2.8-0.8c-0.4-0.1-2.4-0.2-2.2-1.1l-0.7,0.9c-0.6,0.4,0.2,0.5,0.6,0.7l1.2,0.6
		c0.6,0.3,1.9,0.8,2.1,1.3l-0.2-1.2c0.7-0.3,0.9-0.4,0.5-0.5l-0.6-0.1c-0.3,0-0.6,0-0.9,0c-0.8,0.1-1.6,0.2-2.4,0.4
		c-0.2,0-0.6,0.2-0.8,0.1c0.2,0.1,0.1-0.2,0.2-0.4c0.1-0.2,0.1-0.4,0.2-0.6l-0.9,0.3c0.4,0.2,0.7,0.5,1,0.7c1.2,1.5,3.3-0.6,2.1-2.1
		c-1-1.2-3.1-2.4-4.4-0.9c-1.1,1.3-1.4,3.1-0.7,4.7c1,1.6,2.8,1.5,4.3,1.1c1-0.2,2-0.2,3-0.2c0.8,0,1.5-0.3,1.9-0.9
		c1.3-1.9-1-3.3-2.4-4s-3.7-2.6-5.3-1.8s-1.1,3.1-0.2,4.2c1.5,1.8,3.7,1.1,5.6,2C90,243.6,91.6,241,89.8,240.2L89.8,240.2z"/>
	<path class="st25" d="M96,280.9l1.4-4.8c0.3-0.9,1.2-1.4,2-1.1l3.9,1.2c0.9,0.3,1.4,1.2,1.1,2l-1.4,4.8c-0.3,0.9-1.2,1.4-2,1.1
		l-3.9-1.2C96.3,282.7,95.8,281.8,96,280.9z"/>
	<path class="st25" d="M101.4,262.9l1.4-4.8c0.3-0.9,1.2-1.4,2-1.1l3.9,1.2c0.9,0.3,1.4,1.2,1.1,2l-1.4,4.8c-0.3,0.9-1.2,1.4-2,1.1
		l-3.9-1.2C101.7,264.7,101.2,263.8,101.4,262.9z"/>
	<path class="st25" d="M114.1,266.7l1.4-4.8c0.3-0.9,1.2-1.4,2-1.1l3.9,1.2c0.9,0.3,1.4,1.2,1.1,2l-1.4,4.8c-0.3,0.9-1.2,1.4-2,1.1
		l-3.9-1.2C114.3,268.5,113.9,267.6,114.1,266.7z"/>
	<path class="st25" d="M109,285l1.4-4.8c0.3-0.9,1.2-1.4,2.1-1.1l3.9,1.2c0.9,0.3,1.4,1.2,1.1,2.1l-1.4,4.8
		c-0.3,0.9-1.2,1.4-2.1,1.1l-3.9-1.2C109.2,286.8,108.7,285.8,109,285z"/>
	<ellipse class="st26" cx="637.5" cy="401" rx="3.5" ry="2"/>
	<rect x="368.7" y="75.2" class="st27" width="3" height="35.8"/>
	<polygon class="st27" points="346.4,110.6 349.1,111.8 369.3,75.7 366.5,74.5 	"/>
	<polygon class="st27" points="386.1,109.9 388.9,108.8 371.4,74.3 368.6,75.4 	"/>
	<rect class="st6" width="736" height="736"/>
	
		<rect x="629" y="287.8" transform="matrix(0.9841 -0.1774 0.1774 0.9841 -41.1145 120.4401)" class="st28" width="47.7" height="4.5"/>
	<polygon class="st29" points="721.9,277.7 648.6,279.1 652.7,301.9 	"/>
</g>
</svg>
