<svg xmlns="http://www.w3.org/2000/svg" xmlns:xlink="http://www.w3.org/1999/xlink" width="384" height="384" viewBox="0 0 384 384">
  <defs>
    <clipPath id="clip-画板_1">
      <rect width="25" height="25"/>
    </clipPath>
  </defs>
  <g id="画板_1" data-name="画板 – 1" clip-path="url(#clip-画板_1)">

    <path id="路径_1" data-name="路径 1" d="M 12 0.3 a 12 12 0 0 0 -3.8 23.4 c 0.6 0.1 0.8 -0.3 0.8 -0.6 v -2 c -3.3 0.7 -4 -1.6 -4 -1.6 c -0.6 -1.4 -1.4 -1.8 -1.4 -1.8 c -1 -0.7 0.1 -0.7 0.1 -0.7 c 1.2 0 1.9 1.2 1.9 1.2 c 1 1.8 2.8 1.3 3.5 1 c 0 -0.8 0.4 -1.3 0.7 -1.6 c -2.7 -0.3 -5.5 -1.3 -5.5 -6 c 0 -1.2 0.5 -2.3 1.3 -3.1 c -0.2 -0.4 -0.6 -1.6 0 -3.2 c 0 0 1 -0.3 3.4 1.2 a 11.5 11.5 0 0 1 6 0 c 2.3 -1.5 3.3 -1.2 3.3 -1.2 c 0.6 1.6 0.2 2.8 0 3.2 c 0.9 0.8 1.3 1.9 1.3 3.2 c 0 4.6 -2.8 5.6 -5.5 5.9 c 0.5 0.4 0.9 1 0.9 2.2 v 3.3 c 0 0.3 0.1 0.7 0.8 0.6 A 12 12 0 0 0 12 0.3" fill="none" stroke="#ccc" stroke-width="10"/>

  </g>
</svg>







