<svg xmlns="http://www.w3.org/2000/svg" width="80" height="80" viewBox="0 0 80 80">
  <defs>
    <style>
      .cls-1 {
        fill: #47ad9a;
      }

      .cls-2, .cls-3 {
        fill: #fff;
      }

      .cls-2 {
        stroke: #47ad9a;
      }

      .cls-4 {
        stroke: none;
      }

      .cls-5 {
        fill: none;
      }
    </style>
  </defs>
  <g id="组_23" data-name="组 23" transform="translate(2017 -342)">
    <circle id="椭圆_8" data-name="椭圆 8" class="cls-1" cx="40" cy="40" r="40" transform="translate(-1937 342) rotate(90)"/>
    <g id="椭圆_9" data-name="椭圆 9" class="cls-2" transform="translate(-2008 359)">
      <ellipse class="cls-4" cx="23" cy="17.5" rx="23" ry="17.5"/>
      <ellipse class="cls-5" cx="23" cy="17.5" rx="22.5" ry="17"/>
    </g>
    <g id="椭圆_11" data-name="椭圆 11" class="cls-2" transform="translate(-1986 371)">
      <ellipse class="cls-4" cx="21" cy="17" rx="21" ry="17"/>
      <ellipse class="cls-5" cx="21" cy="17" rx="20.5" ry="16.5"/>
    </g>
    <circle id="椭圆_12" data-name="椭圆 12" class="cls-1" cx="2" cy="2" r="2" transform="translate(-1994 371)"/>
    <circle id="椭圆_13" data-name="椭圆 13" class="cls-1" cx="2" cy="2" r="2" transform="translate(-1982 371)"/>
    <circle id="椭圆_14" data-name="椭圆 14" class="cls-1" cx="2" cy="2" r="2" transform="translate(-1975 383)"/>
    <circle id="椭圆_15" data-name="椭圆 15" class="cls-1" cx="2" cy="2" r="2" transform="translate(-1961 383)"/>
    <path id="多边形_1" data-name="多边形 1" class="cls-3" d="M1.509,2.515a.5.5,0,0,1,.981,0L3.884,9.654a.5.5,0,0,1-.491.6H.607a.5.5,0,0,1-.491-.6Z" transform="translate(-1951.906 410.381) rotate(159)"/>
    <path id="多边形_2" data-name="多边形 2" class="cls-3" d="M1.509,2.515a.5.5,0,0,1,.981,0L3.884,9.654a.5.5,0,0,1-.491.6H.607a.5.5,0,0,1-.491-.6Z" transform="translate(-2000.813 398.299) rotate(-135)"/>
  </g>
</svg>
