<svg xmlns="http://www.w3.org/2000/svg" xmlns:xlink="http://www.w3.org/1999/xlink" width="216" height="216" viewBox="0 0 216 216">
  <defs>
    <filter id="椭圆_1" x="0" y="0" width="216" height="216" filterUnits="userSpaceOnUse">
      <feOffset dy="3" input="SourceAlpha"/>
      <feGaussianBlur stdDeviation="3" result="blur"/>
      <feFlood flood-opacity="0.302"/>
      <feComposite operator="in" in2="blur"/>
      <feComposite in="SourceGraphic"/>
    </filter>
  </defs>
  <g id="组_3" data-name="组 3" transform="translate(-101 -76.785)">
    <g transform="matrix(1, 0, 0, 1, 101, 76.79)" filter="url(#椭圆_1)">
      <circle id="椭圆_1-2" data-name="椭圆 1" cx="99" cy="99" r="99" transform="translate(9 6)" fill="#525252"/>
    </g>
    <path id="路径_1" data-name="路径 1" d="M244.2,212.117c1.969,25.11,31.079,8.486,31.079,8.486" transform="translate(-47.555 -62.39)" fill="none" stroke="#ccc" stroke-width="10"/>
    <rect id="矩形_1" data-name="矩形 1" width="97.172" height="24.663" transform="translate(186.009 123.165) rotate(20)" fill="#888"/>
    <g id="矩形_2" data-name="矩形 2" transform="translate(160.291 110.861) rotate(20)" fill="#fff" stroke="#fff" stroke-width="10">
      <rect width="36.008" height="29.102" stroke="none"/>
      <rect x="5" y="5" width="26.008" height="19.102" fill="none"/>
    </g>
    <line id="直线_1" data-name="直线 1" x1="31.075" y2="60.671" transform="translate(178.268 177.473)" fill="none" stroke="#fff" stroke-width="10"/>
    <line id="直线_2" data-name="直线 2" y2="75.962" transform="translate(209.159 173.906)" fill="none" stroke="#fff" stroke-width="10"/>
    <line id="直线_3" data-name="直线 3" x2="41.434" y2="64.123" transform="translate(208.897 174.036)" fill="none" stroke="#fff" stroke-width="10"/>
    <line id="直线_4" data-name="直线 4" y2="14.304" transform="translate(209.159 163.666)" fill="none" stroke="#ccc" stroke-width="10"/>
    <path id="路径_2" data-name="路径 2" d="M13,1263.526s115.988-24.243,164.734,4.473" transform="translate(113.58 -1030.24)" fill="none" stroke="#fff" stroke-width="7"/>
  </g>
</svg>
