<?xml version="1.0" encoding="UTF-8" standalone="no"?>
<svg
   xmlns:dc="http://purl.org/dc/elements/1.1/"
   xmlns:cc="http://creativecommons.org/ns#"
   xmlns:rdf="http://www.w3.org/1999/02/22-rdf-syntax-ns#"
   xmlns:svg="http://www.w3.org/2000/svg"
   xmlns="http://www.w3.org/2000/svg"
   xmlns:sodipodi="http://sodipodi.sourceforge.net/DTD/sodipodi-0.dtd"
   xmlns:inkscape="http://www.inkscape.org/namespaces/inkscape"
   inkscape:version="1.0 (4035a4f, 2020-05-01)"
   version="1.1"
   id="图层_1"
   x="0px"
   y="0px"
   viewBox="0 0 736 736"
   style="enable-background:new 0 0 736 736;"
   xml:space="preserve"
   sodipodi:docname="earth_v2.svg"><metadata
   id="metadata150"><rdf:RDF><cc:Work
       rdf:about=""><dc:format>image/svg+xml</dc:format><dc:type
         rdf:resource="http://purl.org/dc/dcmitype/StillImage" /><dc:title>资源 3</dc:title></cc:Work></rdf:RDF></metadata><defs
   id="defs148">
	
	
	
	
	
	
	
	
	
	
	
	
	
		
	
		
	
	
	
	
	
	
	
	
		
	
	
		
	
	
	
		
	
	
	
	
		<linearGradient
   id="SVGID_1_"
   gradientUnits="userSpaceOnUse"
   x1="-549.89"
   y1="677.06"
   x2="-535.17"
   y2="677.06"
   gradientTransform="rotate(180,-91.032727,389.61285)">
		<stop
   offset="0"
   style="stop-color:#29ABE2"
   id="stop74" />
		<stop
   offset="7.000000e-02"
   style="stop-color:#2BA5D9"
   id="stop76" />
		<stop
   offset="0.19"
   style="stop-color:#3195BF"
   id="stop78" />
		<stop
   offset="0.34"
   style="stop-color:#3B7B96"
   id="stop80" />
		<stop
   offset="0.52"
   style="stop-color:#49575D"
   id="stop82" />
		<stop
   offset="0.57"
   style="stop-color:#4D4D4D"
   id="stop84" />
		<stop
   offset="0.87"
   style="stop-color:#333333"
   id="stop86" />
		<stop
   offset="0.99"
   style="stop-color:#1B1464"
   id="stop88" />
	</linearGradient>
	
	
	
	
	
	
	
	
	
	
		
	
	
	
	
	
	
	
	
	
	
	
	
	
	
	
		
	
</defs><sodipodi:namedview
   inkscape:current-layer="g1095"
   inkscape:window-maximized="1"
   inkscape:window-y="25"
   inkscape:window-x="0"
   inkscape:cy="373.38801"
   inkscape:cx="573.62941"
   inkscape:zoom="0.55816488"
   showgrid="false"
   id="namedview146"
   inkscape:window-height="787"
   inkscape:window-width="1440"
   inkscape:pageshadow="2"
   inkscape:pageopacity="0"
   guidetolerance="10"
   gridtolerance="10"
   objecttolerance="10"
   borderopacity="1"
   bordercolor="#666666"
   pagecolor="#ffffff" />
<style
   id="style10"
   type="text/css">
	.st0{fill:#B4EBFF;}
	.st1{fill:#616D56;}
	.st2{fill:#555100;}
	.st3{fill:#C9E1FF;}
	.st4{fill:#FFFFFF;}
	.st5{fill:#E2FFD4;}
	.st6{fill:none;}
	.st7{fill:#438FB5;}
	.st8{fill:#CCCCCC;}
	.st9{fill:#7F5D00;}
	.st10{fill:#005500;}
	.st11{fill:#C9FFEA;}
	.st12{fill:#FFD1BF;}
	.st13{fill:#9AFF94;}
	.st14{fill:#FFB4BF;}
	.st15{fill:#D5FFAA;}
	.st16{fill:#FFBD9F;}
	.st17{fill:#C9FFCB;}
	.st18{fill:#ADC2DA;}
	.st19{fill:#AAAAAA;}
	.st20{fill:url(#SVGID_1_);stroke:#666666;stroke-miterlimit:10;}
	.st21{fill:#333333;}
	.st22{fill:#FFA29F;}
	.st23{fill:#FFEA9F;}
	.st24{fill:#0056B4;}
	.st25{fill:#FFFED4;}
	.st26{fill:#317540;}
	.st27{fill:#BBBBBB;}
	.st28{fill:#FFC59F;}
	.st29{fill:#CAFF9F;}
</style>
<title
   id="title12">资源 3</title>
<g
   transform="translate(0,-14.332682)"
   id="g1095"><g
     transform="translate(28.665365,-34.040121)"
     id="g1335"><rect
       y="41.2257"
       x="-26.675453"
       id="rect137"
       height="736"
       width="736"
       class="st6"
       transform="translate(0,14.332682)" /><circle
       style="fill:#6199ff;fill-opacity:1"
       class="st0"
       cx="341.32455"
       cy="409.22571"
       r="276"
       id="circle14" /><path
       class="st1"
       d="m 617.22455,410.7257 c 0,9.1 -0.4,18.1 -1.3,27 -1.5,0.5 -3,0.9 -4.6,1.1 -6.2,0.7 -12.6,-0.6 -18,-3.7 -14.5,-8 -22.2,-26.8 -17.3,-42.6 2.6,-8.6 8.5,-16.5 8.5,-25.5 -0.1,-10.9 -8.6,-19.5 -15,-28.3 -9.5,-12.9 -15.3,-28.1 -16.8,-44.1 -0.3,-2.6 -0.3,-5.4 0.9,-7.8 3,-5.8 11.3,-5.2 17.7,-3.8 l 17.6,3.9 c 2.8,5.8 5.5,11.7 7.9,17.7 0.2,0.4 0.3,0.8 0.5,1.3 13.2,33.4 20,69 19.9,104.8 z"
       id="path16" /><path
       class="st1"
       d="m 182.02455,338.9257 c -11.6,14.8 -31.9,18.7 -50.5,21.6 -10.7,1.7 -21.5,3.4 -32.300003,2.7 -10.2,-0.6 -20.4,-3.4 -28.5,-9.5 6.3,-29.5 17.1,-57.9 32.200003,-84 0.9,1.9 2,3.7 3.2,5.5 4.5,6.6 10.9,11.8 17.2,16.8 z"
       id="path18" /><path
       class="st2"
       d="m 376.42455,212.5257 c -6,7.9 -13.3,16.6 -23.3,17.2 -1.6,0.2 -3.3,-0.2 -4.7,-1.1 -1.6,-1.3 -2.1,-3.4 -2.6,-5.4 -4.9,-19.5 -18.1,-36.1 -33.9,-48.7 -15.3,-12.3 -33.1,-21.1 -50.7,-29.8 47.5,-9.6 96.3,-10.6 144.2,-2.8 3.3,25.9 -13.3,49.8 -29,70.6 z"
       id="path20" /><path
       class="st3"
       d="m 538.62455,438.4257 c -3.3,18 -7.7,36.2 -17.1,52 -11.5,19.2 -29.6,33.5 -47.8,46.7 -14.5,10.5 -29.6,20.8 -46.7,26.2 -13.8,4.3 -28.4,5.3 -42.8,5.3 -39.3,0 -78.2,-7.2 -114.9,-21.1 -17.9,-6.8 -35.3,-15.3 -49.6,-28 -14.3,-12.7 -25.1,-29.9 -27.1,-48.8 -1.4,-12.8 1,-26.9 -6.2,-37.6 -8.4,-12.5 -26,-14.8 -37.3,-24.9 -2.5,-2.3 -4.8,-5.2 -4.9,-8.5 -0.1,-6 6.9,-9.9 12.9,-9.6 6,0.3 11.6,3.2 17.5,4.4 12.1,2.4 25.1,-3 33.1,-12.5 8,-9.5 10.9,-22.4 9.6,-34.6 -1.8,-16.7 -10.6,-35.2 -0.9,-49 8.6,-12.1 26.2,-12.3 41.1,-11.3 l 0.1,0.5 c 38.3,-25 84.2,-43.1 129.5,-35.9 15.4,2.4 30.1,7.7 44.5,13.4 22.2,8.9 44,19.3 62.9,33.9 18.9,14.6 34.9,33.7 42.6,56.1 9.3,26.6 6.6,55.7 1.5,83.3 z"
       id="path22" /><path
       class="st4"
       d="m 531.12455,438.3257 c -3.2,17.4 -7.4,34.9 -16.4,50.1 -11,18.6 -28.4,32.3 -45.8,45.1 -13.9,10.2 -28.4,20.1 -44.8,25.3 -13.2,4.2 -27.2,5.1 -41.1,5.1 -37.7,0 -75,-6.9 -110.2,-20.4 -17.1,-6.5 -33.9,-14.8 -47.6,-27 -13.7,-12.2 -24.1,-28.8 -26,-47 -1.3,-12.3 0.9,-26 -6,-36.3 -8,-12 -25,-14.3 -35.7,-24 -2.4,-2.2 -4.6,-5 -4.6,-8.2 -0.1,-5.8 6.6,-9.5 12.4,-9.2 5.8,0.3 11.1,3.1 16.8,4.3 11.6,2.4 24.1,-2.9 31.7,-12.1 7.6,-9.2 10.5,-21.6 9.2,-33.4 -1.7,-16.1 -10.2,-34 -0.9,-47.2 8.2,-11.7 25.1,-11.9 39.4,-10.9 l 0.1,0.5 c 36.8,-24.2 80.7,-41.5 124.2,-34.6 14.7,2.3 28.9,7.4 42.7,13 21.3,8.6 42.2,18.6 60.3,32.7 18.1,14.1 33.4,32.5 40.9,54.2 8.9,25.3 6.3,53.4 1.4,80 z"
       id="path24" /><path
       style="fill:#468842;fill-opacity:1"
       class="st5"
       d="m 377.02455,206.8257 c -5.9,7.8 -13,16.3 -22.8,16.9 -1.6,0.2 -3.2,-0.1 -4.6,-1 -1.6,-1.2 -2.1,-3.4 -2.6,-5.3 -4.8,-19.1 -17.8,-35.4 -33.2,-47.7 -15,-12 -32.4,-20.7 -49.6,-29.2 46.5,-9.5 94.4,-10.4 141.3,-2.7 3.2,25.2 -13.1,48.6 -28.5,69 z"
       id="path26" /><path
       class="st6"
       d="m 276.12455,140.3257 -0.9,-0.4"
       id="path28" /><path
       style="fill:#468842;fill-opacity:1"
       class="st5"
       d="m 176.72455,336.7257 c -11,14.1 -30.5,17.9 -48.2,20.7 -10.2,1.6 -20.5,3.2 -30.900003,2.6 -9.7,-0.6 -19.5,-3.2 -27.2,-9.1 6,-28.2 16.4,-55.3 30.800003,-80.2 0.9,1.8 1.9,3.6 3.1,5.3 4.3,6.3 10.4,11.2 16.4,16 z"
       id="path30" /><path
       style="fill:#468842;fill-opacity:1"
       class="st5"
       d="m 619.12455,408.4257 c 0,8.9 -0.4,17.7 -1.3,26.5 -1.5,0.5 -3,0.9 -4.5,1.1 -6.1,0.7 -12.3,-0.5 -17.6,-3.6 -14.2,-7.8 -21.7,-26.2 -16.9,-41.7 2.6,-8.4 8.3,-16.1 8.3,-24.9 -0.1,-10.7 -8.4,-19.1 -14.7,-27.7 -9.3,-12.6 -14.9,-27.5 -16.5,-43.1 -0.3,-2.6 -0.3,-5.3 0.9,-7.6 3,-5.6 11.1,-5.1 17.3,-3.7 l 17.2,3.8 c 2.8,5.7 5.3,11.4 7.7,17.3 0.2,0.4 0.3,0.8 0.5,1.2 13,32.5 19.6,67.3 19.6,102.4 z"
       id="path32" /><path
       class="st7"
       d="m 530.12455,611.3257 c -4.2,2.3 -5.2,7.5 -8.5,10.8 -4.2,4.2 -11.3,4.3 -17,2.8 -5.7,-1.4 -11.1,-4.1 -17.1,-4.3 -3.6,0 -7.3,0.4 -10.8,1.3 -20.4,4.5 -41.6,10.5 -56.9,24.4 -1.3,1.2 -2.5,2.5 -3.6,3.9 -0.5,0.7 -0.9,1.5 -1.3,2.3 0,2.1 0.1,4.2 0.2,6.2 0,0.4 0,0.8 0.1,1.1 0.1,0.9 0.1,1.9 0.3,2.8 0.1,0.5 0.2,1 0.3,1.4 v 0 c 0.1,0.3 0.2,0.6 0.2,1 0.7,3 2.1,5.9 3.9,8.4 3.2,3.5 7.5,5.7 12.2,6.2 10.5,1.2 20.7,-5.5 27.9,-13.2 7.3,-7.6 13.2,-16.5 22,-22.5 3.6,-2.4 7.5,-4.4 11.4,-6.2 l 9.3,-4.4 c 3.2,-1.7 6.6,-3 10.2,-3.7 3.6,-0.6 7.5,-0.1 10,2.2 2.1,1.9 3.3,5 6.2,5.7 -3.8,-8.3 -3.5,-18.1 1,-26.2 z"
       id="path34" /><path
       class="st8"
       d="m 489.22455,619.3257 c -17.1,0.4 -34.4,5.2 -50.1,12.5 -6.4,2.9 -12.7,6.4 -17.7,11.2 -4.1,3.9 -7.2,8.9 -8.2,14.1 1.4,-0.3 2.7,-0.7 4,-1.2 18.5,-6.5 36.3,-14.7 53.3,-24.4 6.5,-3.7 12.7,-7.8 18.7,-12.2 z"
       id="path36" /><rect
       style="stroke-width:0.999977"
       x="-303.00766"
       y="515.59259"
       transform="rotate(-41.537898)"
       class="st9"
       width="18.499573"
       height="3.0999284"
       id="rect38" /><ellipse
       style="stroke-width:0.999959"
       transform="rotate(-8.7200245)"
       class="st10"
       cx="544.43475"
       cy="423.76425"
       rx="2.2999046"
       ry="10.299573"
       id="ellipse40" /><polygon
       style="fill:#ab8368;fill-opacity:1"
       transform="translate(-26.675453,41.2257)"
       class="st11"
       points="142.5,497.6 109.5,485.9 129.8,508.9 "
       id="polygon42" /><polygon
       transform="translate(-26.675453,41.2257)"
       class="st8"
       points="127.2,514.9 117,567.7 149,539.8 "
       id="polygon44" /><polygon
       style="fill:#ab8368;fill-opacity:1"
       transform="translate(-26.675453,41.2257)"
       class="st11"
       points="142.5,497.6 129.8,508.9 178,563.2 178.8,562.5 190.7,551.9 "
       id="polygon46" /><polyline
       style="fill:#ab8368;fill-opacity:1"
       transform="translate(-26.675453,41.2257)"
       class="st11"
       points="193.3,580.5 190.7,551.9 178,563.2  "
       id="polyline48" /><polyline
       transform="translate(-26.675453,41.2257)"
       class="st8"
       points="127.7,562.3 165.8,558.8 150.8,541.9  "
       id="polyline50" /><ellipse
       style="stroke-width:0.999976"
       transform="rotate(-8.1001211)"
       class="st10"
       cx="548.91284"
       cy="447.63306"
       rx="3.1999245"
       ry="9.899766"
       id="ellipse52" /><ellipse
       style="stroke-width:0.999995"
       transform="rotate(-5.8428604)"
       class="st10"
       cx="559.83069"
       cy="468.71466"
       rx="1.9999902"
       ry="9.7999525"
       id="ellipse54" /><rect
       style="stroke-width:0.999962"
       x="531.81079"
       y="464.64755"
       transform="rotate(-10.218748)"
       class="st12"
       width="18.79928"
       height="4.8998127"
       id="rect56" /><polygon
       style="fill:#3cd533;fill-opacity:1"
       transform="translate(-26.675453,41.2257)"
       class="st13"
       points="684.1,314.8 644.6,310.1 648.7,332.9 "
       id="polygon58" /><rect
       style="stroke-width:0.999962"
       x="520.98529"
       y="510.15094"
       transform="rotate(-10.410932)"
       class="st14"
       width="47.498211"
       height="4.4998307"
       id="rect60" /><polygon
       style="fill:#5c8830;fill-opacity:1"
       transform="translate(-26.675453,41.2257)"
       class="st15"
       points="735.8,350.1 653.6,353.1 657.7,375.9 "
       id="polygon62" /><ellipse
       style="stroke-width:1.00002"
       transform="rotate(-9.1486623)"
       class="st10"
       cx="522.45764"
       cy="391.99554"
       rx="1.800038"
       ry="9.9002094"
       id="ellipse64" /><rect
       style="stroke-width:0.999962"
       x="514.10046"
       y="400.91541"
       transform="rotate(-10.410932)"
       class="st16"
       width="47.498211"
       height="4.4998307"
       id="rect66" /><polygon
       style="fill:#40e046;fill-opacity:1"
       transform="translate(-26.675453,41.2257)"
       class="st17"
       points="700.9,245.7 627.6,247.1 631.7,269.9 "
       id="polygon68" /><polygon
       transform="translate(-26.675453,41.2257)"
       class="st18"
       points="388.3,53.1 363.4,56 365.8,72.3 390.6,69.5 "
       id="polygon70" /><polygon
       transform="translate(-26.675453,41.2257)"
       class="st19"
       points="365.1,55.9 345.8,58 348,73.4 367.3,71.3 "
       id="polygon72" /><ellipse
       class="st20"
       cx="360.42456"
       cy="102.1257"
       rx="7.4000001"
       ry="8.8999996"
       id="ellipse91"
       style="fill:url(#SVGID_1_)" /><ellipse
       class="st18"
       cx="338.22455"
       cy="105.3257"
       rx="6.9000001"
       ry="8.5"
       id="ellipse93" /><ellipse
       class="st19"
       cx="319.02457"
       cy="107.2257"
       rx="7.6999998"
       ry="8"
       id="ellipse95" /><rect
       x="344.02457"
       y="111.1257"
       class="st21"
       width="3"
       height="2.7"
       id="rect97" /><rect
       x="342.02457"
       y="112.9257"
       class="st21"
       width="3"
       height="2.7"
       id="rect99" /><rect
       x="339.92456"
       y="112.0257"
       class="st21"
       width="3"
       height="1.8"
       id="rect101" /><rect
       x="336.92456"
       y="112.9257"
       class="st21"
       width="12.1"
       height="0.89999998"
       id="rect103" /><rect
       x="341.02457"
       y="114.7257"
       class="st21"
       width="1"
       height="1.8"
       id="rect105" /><rect
       x="344.02457"
       y="115.6257"
       class="st21"
       width="1"
       height="0.89999998"
       id="rect107" /><ellipse
       style="stroke-width:1"
       transform="rotate(-86.110016)"
       class="st10"
       cx="-129.10165"
       cy="349.89374"
       rx="4.0000153"
       ry="26.800102"
       id="ellipse109" /><path
       style="fill:#f46e72;fill-opacity:1"
       class="st22"
       d="m 61.824547,329.5257 12.8,-42.6 c 0.3,-0.9 1.2,-1.4 2,-1.1 l 23.600003,7.1 c 0.9,0.3 1.4,1.2 1.1,2 l -12.800003,42.6 c -0.3,0.9 -1.2,1.4 -2,1.1 l -23.6,-7.1 c -0.9,-0.2 -1.4,-1.1 -1.1,-2 z"
       id="path111" /><path
       style="fill:#af711f;fill-opacity:1"
       class="st23"
       d="m 77.224547,283.2257 -15.9,53 c -0.1,0.8 -0.9,1.3 -1.7,1.2 -0.4,-0.1 -0.7,-0.3 -0.9,-0.6 l -6.4,-9.6 c -0.3,-0.4 -0.3,-0.9 -0.2,-1.4 l 10.9,-36.4 c 0.1,-0.4 0.4,-0.8 0.8,-1 l 11.3,-6.9 c 0.7,-0.4 1.6,-0.2 2,0.5 0.2,0.3 0.2,0.8 0.1,1.2 z"
       id="path113" /><path
       class="st24"
       d="m 66.024547,284.5257 0.1,-0.3 c 0.2,-0.8 1.1,-1.3 1.9,-1 l 1.3,0.4 c 0.8,0.2 1.3,1.1 1,1.9 l -0.1,0.3 c -0.2,0.8 -1.1,1.3 -1.9,1 l -1.3,-0.4 c -0.8,-0.3 -1.2,-1.1 -1,-1.9 z"
       id="path115" /><path
       class="st8"
       d="m 62.424547,282.7257 c -0.7,-0.4 -1.5,-0.6 -2.3,-0.6 -0.8,0 -1.6,-0.2 -2.3,-0.6 -0.7,-0.4 -1.2,-1.2 -1.3,-2 0,-0.1 0,-0.3 0.1,-0.4 0.2,-0.2 0.5,-0.1 0.7,0 1.5,0.8 3.1,1.6 4.6,2.4 0.4,0.2 0.8,0.6 0.6,1.1 -0.2,0.5 -0.7,0.4 -1,0.3 -0.9,-0.1 -1.8,-0.1 -2.8,0.1 -0.5,0.2 -1.1,0.3 -1.6,0.4 -0.6,0.1 -1.1,-0.2 -1.4,-0.7 -0.4,-0.8 -0.1,-1.8 0.3,-2.6 0.1,-0.2 0.2,-0.3 0.3,-0.4 0.2,-0.1 0.3,-0.1 0.5,0 0.7,0.2 1.2,0.6 1.6,1.1"
       id="path117" /><path
       class="st8"
       d="m 63.124547,281.4257 c -0.9,-0.4 -1.8,-0.7 -2.8,-0.8 -0.4,-0.1 -2.4,-0.2 -2.2,-1.1 l -0.7,0.9 c -0.6,0.4 0.2,0.5 0.6,0.7 l 1.2,0.6 c 0.6,0.3 1.9,0.8 2.1,1.3 l -0.2,-1.2 c 0.7,-0.3 0.9,-0.4 0.5,-0.5 l -0.6,-0.1 c -0.3,0 -0.6,0 -0.9,0 -0.8,0.1 -1.6,0.2 -2.4,0.4 -0.2,0 -0.6,0.2 -0.8,0.1 0.2,0.1 0.1,-0.2 0.2,-0.4 0.1,-0.2 0.1,-0.4 0.2,-0.6 l -0.9,0.3 c 0.4,0.2 0.7,0.5 1,0.7 1.2,1.5 3.3,-0.6 2.1,-2.1 -1,-1.2 -3.1,-2.4 -4.4,-0.9 -1.1,1.3 -1.4,3.1 -0.7,4.7 1,1.6 2.8,1.5 4.3,1.1 1,-0.2 2,-0.2 3,-0.2 0.8,0 1.5,-0.3 1.9,-0.9 1.3,-1.9 -1,-3.3 -2.4,-4 -1.4,-0.7 -3.7,-2.6 -5.3,-1.8 -1.6,0.8 -1.1,3.1 -0.2,4.2 1.5,1.8 3.7,1.1 5.6,2 2,1 3.6,-1.6 1.8,-2.4 z"
       id="path119" /><path
       class="st25"
       d="m 69.324547,322.1257 1.4,-4.8 c 0.3,-0.9 1.2,-1.4 2,-1.1 l 3.9,1.2 c 0.9,0.3 1.4,1.2 1.1,2 l -1.4,4.8 c -0.3,0.9 -1.2,1.4 -2,1.1 l -3.9,-1.2 c -0.8,-0.2 -1.3,-1.1 -1.1,-2 z"
       id="path121" /><path
       class="st25"
       d="m 74.724547,304.1257 1.4,-4.8 c 0.3,-0.9 1.2,-1.4 2,-1.1 l 3.9,1.2 c 0.9,0.3 1.4,1.2 1.1,2 l -1.4,4.8 c -0.3,0.9 -1.2,1.4 -2,1.1 l -3.9,-1.2 c -0.8,-0.2 -1.3,-1.1 -1.1,-2 z"
       id="path123" /><path
       class="st25"
       d="m 87.424547,307.9257 1.4,-4.8 c 0.3,-0.9 1.2,-1.4 2,-1.1 l 3.9,1.2 c 0.9,0.3 1.4,1.2 1.1,2 l -1.4,4.8 c -0.3,0.9 -1.2,1.4 -2,1.1 l -3.9,-1.2 c -0.9,-0.2 -1.3,-1.1 -1.1,-2 z"
       id="path125" /><path
       class="st25"
       d="m 82.324547,326.2257 1.4,-4.8 c 0.3,-0.9 1.2,-1.4 2.1,-1.1 l 3.9,1.2 c 0.9,0.3 1.4,1.2 1.1,2.1 l -1.4,4.8 c -0.3,0.9 -1.2,1.4 -2.1,1.1 l -3.9,-1.2 c -0.9,-0.3 -1.4,-1.3 -1.1,-2.1 z"
       id="path127" /><ellipse
       class="st26"
       cx="610.82452"
       cy="442.22571"
       rx="3.5"
       ry="2"
       id="ellipse129" /><rect
       x="342.02457"
       y="116.4257"
       class="st27"
       width="3"
       height="35.799999"
       id="rect131" /><polygon
       transform="translate(-26.675453,41.2257)"
       class="st27"
       points="369.3,75.7 366.5,74.5 346.4,110.6 349.1,111.8 "
       id="polygon133" /><polygon
       transform="translate(-26.675453,41.2257)"
       class="st27"
       points="371.4,74.3 368.6,75.4 386.1,109.9 388.9,108.8 "
       id="polygon135" /><rect
       style="stroke-width:0.999962"
       x="533.58069"
       y="434.86398"
       transform="rotate(-10.218748)"
       class="st28"
       width="47.698177"
       height="4.4998279"
       id="rect139" /><polygon
       style="fill:#5a8d30;fill-opacity:1"
       transform="translate(-26.675453,41.2257)"
       class="st29"
       points="721.9,277.7 648.6,279.1 652.7,301.9 "
       id="polygon141" /></g></g>
</svg>
