<svg xmlns="http://www.w3.org/2000/svg" width="80" height="80" viewBox="0 0 80 80">
  <defs>
    <style>
      .cls-1 {
        fill: #333;
      }

      .cls-2 {
        fill: #fff;
      }
    </style>
  </defs>
  <g id="组_25" data-name="组 25" transform="translate(2518 -341)">
    <circle id="椭圆_7" data-name="椭圆 7" class="cls-1" cx="40" cy="40" r="40" transform="translate(-2518 341)"/>
    <circle id="椭圆_6" data-name="椭圆 6" class="cls-2" cx="38" cy="38" r="38" transform="translate(-2516 343)"/>
    <path id="路径_1" data-name="路径 1" class="cls-1" d="M87,61.37a39.018,39.018,0,0,1-7.346,23.2A37.734,37.734,0,0,1,60.679,98.826a2.14,2.14,0,0,1-1.98-.362,2.085,2.085,0,0,1-.629-1.546V86.086q0-4.989-2.609-7.3a33.27,33.27,0,0,0,5.139-.926,20.329,20.329,0,0,0,4.714-2.005,14.016,14.016,0,0,0,4.062-3.415,16.029,16.029,0,0,0,2.656-5.4,26.543,26.543,0,0,0,1.029-7.731A15.179,15.179,0,0,0,69.1,48.734q1.85-4.675-.4-10.486a6.446,6.446,0,0,0-4.062.564,26.884,26.884,0,0,0-4.612,2.263l-1.909,1.232a35.317,35.317,0,0,0-19.25,0c-.534-.379-1.249-.838-2.129-1.385a29.919,29.919,0,0,0-4.188-1.981c-1.9-.773-3.339-1-4.314-.693q-2.2,5.811-.346,10.477a15.207,15.207,0,0,0-3.96,10.582,26.257,26.257,0,0,0,1.029,7.707,16.64,16.64,0,0,0,2.632,5.4,13.526,13.526,0,0,0,4.039,3.439,20.049,20.049,0,0,0,4.714,2.005,34.257,34.257,0,0,0,5.139.926,8.438,8.438,0,0,0-2.459,5.291,9.472,9.472,0,0,1-2.255.773,13.984,13.984,0,0,1-2.86.258A5.818,5.818,0,0,1,30.625,84a8.951,8.951,0,0,1-2.781-3.213,8.27,8.27,0,0,0-2.428-2.674,7.288,7.288,0,0,0-2.483-1.232l-1.006-.153a3.2,3.2,0,0,0-1.454.234c-.267.153-.354.346-.251.588a2.669,2.669,0,0,0,.456.717,3.358,3.358,0,0,0,.652.612l.354.258a6.1,6.1,0,0,1,2.184,1.957,13.031,13.031,0,0,1,1.579,2.617l.5,1.184a6.436,6.436,0,0,0,2.208,3.157,7.638,7.638,0,0,0,3.355,1.538,20.507,20.507,0,0,0,3.481.362,14.372,14.372,0,0,0,2.781-.185l1.155-.2c0,1.3.008,2.827.024,4.574s.024,2.674.024,2.77a2.072,2.072,0,0,1-.652,1.546,2.2,2.2,0,0,1-2,.362A37.825,37.825,0,0,1,17.346,84.563,39.018,39.018,0,0,1,10,61.362,39.371,39.371,0,0,1,15.162,41.55,38.764,38.764,0,0,1,29.171,27.191,36.983,36.983,0,0,1,48.5,21.9a36.983,36.983,0,0,1,19.329,5.291A38.764,38.764,0,0,1,81.838,41.55,39.371,39.371,0,0,1,87,61.362Z" transform="translate(-2526.258 319.402)"/>
  </g>
</svg>
